<svg aria-hidden="true" style="position: absolute; width: 0; height: 0; overflow: hidden;" version="1.1" xmlns="http://www.w3.org/2000/svg" xmlns:xlink="http://www.w3.org/1999/xlink">
<defs>
<symbol id="icon-chocolate" viewBox="0 0 32 32">
<title>chocolate</title>
<path  d="M3.944 20.076l10.777-17.424 0.64-0.674 8.236 5.491 0.056 3.314 2.010 3.28-8.88 14.077-12.839-8.063z"></path>
<path  stroke-linejoin="round" stroke-linecap="round" stroke-miterlimit="4" stroke-width="2.6667" d="M21.635 23.88l-14.185-8.864M11.361 8.599l14.186 8.864M10.63 25.864l11.736-19.25M27.176 14.789c-3.040-1.899-4.234-3.384-2.278-6.592l-9.626-6.015-11.736 19.25 14.185 8.864 9.454-15.507z"></path>
</symbol>
<symbol id="icon-facebook" viewBox="0 0 32 32">
<title>facebook</title>
<path stroke-linejoin="round" stroke-linecap="round" stroke-miterlimit="4" stroke-width="2" d="M24 2.667h-4c-1.768 0-3.464 0.702-4.714 1.953s-1.953 2.946-1.953 4.714v4h-4v5.333h4v10.667h5.333v-10.667h4l1.333-5.333h-5.333v-4c0-0.354 0.141-0.693 0.391-0.943s0.589-0.391 0.943-0.391h4v-5.333z"></path>
</symbol>
<symbol id="icon-instagram-1" viewBox="0 0 32 32">
<title>instagram-1</title>
<path stroke-linejoin="round" stroke-linecap="round" stroke-miterlimit="4" stroke-width="2" d="M22.667 2.667h-13.333c-3.682 0-6.667 2.985-6.667 6.667v13.333c0 3.682 2.985 6.667 6.667 6.667h13.333c3.682 0 6.667-2.985 6.667-6.667v-13.333c0-3.682-2.985-6.667-6.667-6.667z"></path>
<path stroke-linejoin="round" stroke-linecap="round" stroke-miterlimit="4" stroke-width="2" d="M21.333 15.16c0.165 1.11-0.025 2.243-0.542 3.239s-1.334 1.803-2.336 2.307c-1.002 0.504-2.137 0.68-3.245 0.502s-2.131-0.701-2.924-1.494c-0.793-0.793-1.316-1.816-1.494-2.924s-0.003-2.243 0.502-3.245c0.504-1.002 1.312-1.819 2.308-2.336s2.129-0.706 3.239-0.542c1.132 0.168 2.18 0.695 2.989 1.504s1.337 1.857 1.504 2.989z"></path>
<path stroke-linejoin="round" stroke-linecap="round" stroke-miterlimit="4" stroke-width="2" d="M23.333 8.667h0.013"></path>
</symbol>
<symbol id="icon-twitter-1" viewBox="0 0 32 32">
<title>twitter-1</title>
<path stroke-linejoin="round" stroke-linecap="round" stroke-miterlimit="4" stroke-width="2" d="M30.667 4c-1.277 0.901-2.691 1.589-4.187 2.040-0.803-0.923-1.87-1.578-3.057-1.875s-2.437-0.222-3.58 0.214c-1.143 0.436-2.125 1.213-2.812 2.226s-1.047 2.212-1.031 3.435v1.333c-2.343 0.061-4.665-0.459-6.759-1.513s-4.561-3.563-5.908-5.481c0 0-4.667 12.954 7.333 18.287-2.746 1.864-6.017 2.799-9.333 2.667 12 6.667 26.667 0 26.667-15.333-0.001-0.371-0.037-0.742-0.107-1.107 1.361-1.342 2.321-3.036 2.773-4.893z"></path>
</symbol>
<symbol id="scroll-down" viewBox="0 0 38 38" > 
<title>close</title>
<path d="M19.6508 20.2835C19.5656 20.3694 19.4642 20.4376 19.3525 20.4842C19.2408 20.5307 19.121 20.5547 19 20.5547C18.879 20.5547 18.7592 20.5307 18.6475 20.4842C18.5358 20.4376 18.4344 20.3694 18.3492 20.2835L14.1508 16.076C14.0656 15.9901 13.9642 15.9219 13.8525 15.8754C13.7408 15.8288 13.621 15.8049 13.5 15.8049C13.379 15.8049 13.2592 15.8288 13.1475 15.8754C13.0358 15.9219 12.9344 15.9901 12.8492 16.076C12.6784 16.2478 12.5826 16.4801 12.5826 16.7223C12.5826 16.9644 12.6784 17.1968 12.8492 17.3685L17.0567 21.576C17.5723 22.091 18.2713 22.3802 19 22.3802C19.7288 22.3802 20.4277 22.091 20.9433 21.576L25.1509 17.3685C25.3202 17.1978 25.4157 16.9673 25.4167 16.7268C25.4174 16.6062 25.3943 16.4866 25.3486 16.3749C25.303 16.2632 25.2358 16.1617 25.1509 16.076C25.0656 15.9901 24.9643 15.9219 24.8525 15.8754C24.7408 15.8288 24.621 15.8049 24.5 15.8049C24.379 15.8049 24.2592 15.8288 24.1475 15.8754C24.0358 15.9219 23.9344 15.9901 23.8492 16.076L19.6508 20.2835Z"/>

</symbol>
</defs>
</svg>
